<svg
      width="450"
      height="200"
      viewBox="0 0 450 200"
      fill="none"
      xmlns="http://www.w3.org/2000/svg"
      role="img"
    >
      <style>
        .header {
          font: 600 18px 'Segoe UI', Ubuntu, Sans-Serif;
          fill: #58a6ff;
          animation: fadeIn 0.8s ease-in-out forwards;
        }
        
    .stat-label {
      font: 400 14px 'Segoe UI', Ubuntu, Sans-Serif;
      fill: #c9d1d9;
    }
    .stat-value {
      font: 700 14px 'Segoe UI', Ubuntu, Sans-Serif;
      fill: #c9d1d9;
    }
    .stat-icon {
      y: -1;
    }
    .stat-row {
      opacity: 0;
      animation: slideUp 0.4s ease-in-out forwards;
    }
    .rank-circle-bg {
      stroke: #58a6ff;
      fill: none;
      stroke-width: 6;
      opacity: 0.15;
    }
    .rank-circle {
      stroke: #58a6ff;
      stroke-dasharray: 251.32741228718345;
      stroke-dashoffset: 251.32741228718345;
      fill: none;
      stroke-width: 6;
      stroke-linecap: round;
      transform-origin: 50% 50%;
      transform: rotate(-90deg);
      --progress-offset: 48.365849897495195;
      animation: rankAnim 1s 0.5s ease-in-out forwards;
    }
    .rank-label {
      font: 600 12px 'Segoe UI', Ubuntu, Sans-Serif;
      fill: #c9d1d9;
      opacity: 0.6;
    }
    .rank-level {
      font: 800 28px 'Segoe UI', Ubuntu, Sans-Serif;
      fill: #c9d1d9;
      animation: scaleIn 0.4s ease-in-out forwards;
    }
  
        
  @keyframes fadeIn {
    from { opacity: 0; }
    to { opacity: 1; }
  }
  @keyframes scaleIn {
    from { transform: translate(-5px, 5px) scale(0); }
    to { transform: translate(-5px, 5px) scale(1); }
  }
  @keyframes slideUp {
    from { opacity: 0; transform: translateY(10px); }
    to { opacity: 1; transform: translateY(0); }
  }
  @keyframes rankAnim {
    from { stroke-dashoffset: 251.2; }
    to { stroke-dashoffset: var(--progress-offset); }
  }

        
      </style>

      <rect
        x="0.5"
        y="0.5"
        rx="4.5"
        height="99%"
        width="449"
        stroke="#30363d"
        fill="#0d1117"
        stroke-opacity="1"
      />

      <text
            class="header"
            x="25"
            y="35"
            data-testid="header"
          >Thanaphoom Babparn's GitHub Stats</text>

      <g
        transform="translate(0, 55)"
      >
        
    <g transform="translate(370, 50)">
        <circle class="rank-circle-bg" cx="40" cy="40" r="40" />
        <circle class="rank-circle" cx="40" cy="40" r="40" />
        <text class="rank-label" x="40" y="28" text-anchor="middle">RANK</text>
        <text class="rank-level" x="40" y="56" text-anchor="middle">A</text>
      </g>
    <g>
      <g class="stat-row" style="animation-delay: 150ms" transform="translate(25, 0)">
      <svg class="stat-icon" viewBox="0 0 16 16" width="16" height="16" fill="#58a6ff">
        <path fill-rule="evenodd" d="M8 .25a.75.75 0 01.673.418l1.882 3.815 4.21.612a.75.75 0 01.416 1.279l-3.046 2.97.719 4.192a.75.75 0 01-1.088.791L8 12.347l-3.766 1.98a.75.75 0 01-1.088-.79l.72-4.194L.818 6.374a.75.75 0 01.416-1.28l4.21-.611L7.327.668A.75.75 0 018 .25zm0 2.445L6.615 5.5a.75.75 0 01-.564.41l-3.097.45 2.24 2.184a.75.75 0 01.216.664l-.528 3.084 2.769-1.456a.75.75 0 01.698 0l2.77 1.456-.53-3.084a.75.75 0 01.216-.664l2.24-2.183-3.096-.45a.75.75 0 01-.564-.41L8 2.694v.001z"/>
      </svg>
      <text class="stat-label" x="24" y="12.5">Total Stars:</text>
      <text class="stat-value" y="12.5">245</text>
    </g>
<g class="stat-row" style="animation-delay: 300ms" transform="translate(25, 25)">
      <svg class="stat-icon" viewBox="0 0 16 16" width="16" height="16" fill="#58a6ff">
        <path fill-rule="evenodd" d="M1.5 3.25a2.25 2.25 0 113 2.122v5.256a2.251 2.251 0 11-1.5 0V5.372A2.25 2.25 0 011.5 3.25zm5.677-.177L9.573.677A.25.25 0 0110 .854V2.5h1A2.5 2.5 0 0113.5 5v5.628a2.251 2.251 0 11-1.5 0V5a1 1 0 00-1-1h-1v1.646a.25.25 0 01-.427.177L7.177 3.427a.25.25 0 010-.354zM3.75 2.5a.75.75 0 100 1.5.75.75 0 000-1.5zm0 9.5a.75.75 0 100 1.5.75.75 0 000-1.5zm8.25.75a.75.75 0 111.5 0 .75.75 0 01-1.5 0z"/>
      </svg>
      <text class="stat-label" x="24" y="12.5">Total Commits:</text>
      <text class="stat-value" y="12.5">712</text>
    </g>
<g class="stat-row" style="animation-delay: 450ms" transform="translate(25, 50)">
      <svg class="stat-icon" viewBox="0 0 16 16" width="16" height="16" fill="#58a6ff">
        <path fill-rule="evenodd" d="M7.177 3.073L9.573.677A.25.25 0 0110 .854v4.792a.25.25 0 01-.427.177L7.177 3.427a.25.25 0 010-.354zM3.75 2.5a.75.75 0 100 1.5.75.75 0 000-1.5zm-2.25.75a2.25 2.25 0 113 2.122v5.256a2.251 2.251 0 11-1.5 0V5.372A2.25 2.25 0 011.5 3.25zm10.31 7.939a.75.75 0 00-1.042-.254 3.5 3.5 0 00-1.768 3.044.75.75 0 001.5 0 2 2 0 011.01-1.748.75.75 0 00.254-1.042h-.254zM3.75 12.5a.75.75 0 100 1.5.75.75 0 000-1.5z"/>
      </svg>
      <text class="stat-label" x="24" y="12.5">Total PRs:</text>
      <text class="stat-value" y="12.5">249</text>
    </g>
<g class="stat-row" style="animation-delay: 600ms" transform="translate(25, 75)">
      <svg class="stat-icon" viewBox="0 0 16 16" width="16" height="16" fill="#58a6ff">
        <path fill-rule="evenodd" d="M8 1.5a6.5 6.5 0 100 13 6.5 6.5 0 000-13zM0 8a8 8 0 1116 0A8 8 0 010 8zm9 3a1 1 0 11-2 0 1 1 0 012 0zm-.25-6.25a.75.75 0 00-1.5 0v3.5a.75.75 0 001.5 0v-3.5z"/>
      </svg>
      <text class="stat-label" x="24" y="12.5">Total Issues:</text>
      <text class="stat-value" y="12.5">1</text>
    </g>
<g class="stat-row" style="animation-delay: 750ms" transform="translate(25, 100)">
      <svg class="stat-icon" viewBox="0 0 16 16" width="16" height="16" fill="#58a6ff">
        <path fill-rule="evenodd" d="M2 2.5A2.5 2.5 0 014.5 0h8.75a.75.75 0 01.75.75v12.5a.75.75 0 01-.75.75h-2.5a.75.75 0 110-1.5h1.75v-2h-8a1 1 0 00-.714 1.7.75.75 0 01-1.072 1.05A2.495 2.495 0 012 11.5v-9zm10.5-1h-8a1 1 0 00-1 1v6.708A2.486 2.486 0 014.5 9h8.5V1.5zm-8 11a1 1 0 100-2 1 1 0 000 2z"/>
      </svg>
      <text class="stat-label" x="24" y="12.5">Contributed to:</text>
      <text class="stat-value" y="12.5">5</text>
    </g>
    </g>
    <style>
      .stat-value { x: 155; }
    </style>
  
      </g>
    </svg>