<svg xmlns="http://www.w3.org/2000/svg" width="440" height="188" viewBox="0 0 440 188" role="img">
  <rect x="0.5" y="0.5" width="439" height="99%" rx="4.5" fill="#0d1117" stroke="#30363d"/>
  <text x="24" y="40" font-size="16" font-weight="600" font-family="'Segoe UI', Ubuntu, Sans-Serif" fill="#58a6ff">Thanaphoom Babparn</text>
  <text x="24" y="56" font-size="11" font-family="'Segoe UI', Ubuntu, Sans-Serif" fill="#c9d1d9" opacity="0.4">@marttp</text>
  <line x1="24" y1="64" x2="416" y2="64" stroke="#c9d1d9" stroke-width="0.5" opacity="0.1"/>
  <text x="24" y="80" font-size="9" font-weight="700" font-family="'Segoe UI', Ubuntu, Sans-Serif" fill="#c9d1d9" opacity="0.3" letter-spacing="1.5">IMPACT</text>
  <text x="209" y="80" font-size="9" font-weight="700" font-family="'Segoe UI', Ubuntu, Sans-Serif" fill="#c9d1d9" opacity="0.3" letter-spacing="1.5">ACTIVITY</text>
  <svg x="24" y="92" width="14" height="14" viewBox="0 0 24 24" fill="none" stroke="#58a6ff" stroke-width="2" stroke-linecap="round" stroke-linejoin="round" opacity="0.55"><path d="M11.525 2.295a.53.53 0 0 1 .95 0l2.31 4.679a2.123 2.123 0 0 0 1.595 1.16l5.166.756a.53.53 0 0 1 .294.904l-3.736 3.638a2.123 2.123 0 0 0-.611 1.878l.882 5.14a.53.53 0 0 1-.771.56l-4.618-2.428a2.122 2.122 0 0 0-1.973 0L6.396 21.01a.53.53 0 0 1-.77-.56l.881-5.139a2.122 2.122 0 0 0-.611-1.879L2.16 9.795a.53.53 0 0 1 .294-.906l5.165-.755a2.122 2.122 0 0 0 1.597-1.16z"/></svg>
<text x="42" y="104" font-size="14" font-weight="700" font-family="'SF Mono', 'Cascadia Code', 'Consolas', monospace" fill="#c9d1d9">245</text>
<text x="74" y="104" font-size="12" font-family="'Segoe UI', Ubuntu, Sans-Serif" fill="#c9d1d9" opacity="0.5">stars</text>
<svg x="24" y="116" width="14" height="14" viewBox="0 0 24 24" fill="none" stroke="#58a6ff" stroke-width="2" stroke-linecap="round" stroke-linejoin="round" opacity="0.55"><circle cx="18" cy="18" r="3"/><circle cx="6" cy="6" r="3"/><path d="M6 21V9a9 9 0 0 0 9 9"/></svg>
<text x="42" y="128" font-size="14" font-weight="700" font-family="'SF Mono', 'Cascadia Code', 'Consolas', monospace" fill="#c9d1d9">97</text>
<text x="65" y="128" font-size="12" font-family="'Segoe UI', Ubuntu, Sans-Serif" fill="#c9d1d9" opacity="0.5">contributions</text>
  <svg x="209" y="92" width="14" height="14" viewBox="0 0 24 24" fill="none" stroke="#58a6ff" stroke-width="2" stroke-linecap="round" stroke-linejoin="round" opacity="0.55"><circle cx="12" cy="12" r="3"/><line x1="3" x2="9" y1="12" y2="12"/><line x1="15" x2="21" y1="12" y2="12"/></svg>
<text x="227" y="104" font-size="14" font-weight="700" font-family="'SF Mono', 'Cascadia Code', 'Consolas', monospace" fill="#c9d1d9">982</text>
<text x="259" y="104" font-size="12" font-family="'Segoe UI', Ubuntu, Sans-Serif" fill="#c9d1d9" opacity="0.5">commits</text>
<svg x="209" y="116" width="14" height="14" viewBox="0 0 24 24" fill="none" stroke="#58a6ff" stroke-width="2" stroke-linecap="round" stroke-linejoin="round" opacity="0.55"><circle cx="18" cy="18" r="3"/><circle cx="6" cy="6" r="3"/><path d="M13 6h3a2 2 0 0 1 2 2v7"/><line x1="6" x2="6" y1="9" y2="21"/></svg>
<text x="227" y="128" font-size="14" font-weight="700" font-family="'SF Mono', 'Cascadia Code', 'Consolas', monospace" fill="#c9d1d9">249</text>
<text x="259" y="128" font-size="12" font-family="'Segoe UI', Ubuntu, Sans-Serif" fill="#c9d1d9" opacity="0.5">pull requests</text>
<svg x="209" y="140" width="14" height="14" viewBox="0 0 24 24" fill="none" stroke="#58a6ff" stroke-width="2" stroke-linecap="round" stroke-linejoin="round" opacity="0.55"><circle cx="12" cy="12" r="10"/><line x1="12" x2="12" y1="8" y2="12"/><line x1="12" x2="12.01" y1="16" y2="16"/></svg>
<text x="227" y="152" font-size="14" font-weight="700" font-family="'SF Mono', 'Cascadia Code', 'Consolas', monospace" fill="#c9d1d9">1</text>
<text x="242" y="152" font-size="12" font-family="'Segoe UI', Ubuntu, Sans-Serif" fill="#c9d1d9" opacity="0.5">issues</text>
</svg>